<svg xmlns="http://www.w3.org/2000/svg" viewBox="0 0 814.09 628"><defs><style>.cls-1,.cls-2{fill:none;stroke:#dbd9d5;stroke-width:15px;}.cls-1{stroke-linecap:round;stroke-linejoin:round;}.cls-2{stroke-miterlimit:10;}</style></defs><g id="Layer_2" data-name="Layer 2"><g id="Weather_Icons" data-name="Weather Icons"><g id="Cloudy_night" data-name="Cloudy night"><g id="moon_behind_cloud" data-name="moon behind cloud"><path id="moon" class="cls-1" d="M254.91,522.35a306.33,306.33,0,0,0,141.94,86.81A306.41,306.41,0,0,1,314,620.5C144.72,620.5,7.5,483.27,7.5,314S144.72,7.5,314,7.5a306.41,306.41,0,0,1,82.85,11.34C284.63,50.26,198.45,144,177.89,260.31"/><path id="Cloud" class="cls-2" d="M803.57,415.39c-16.84,76-99.44,125.34-184.5,110.3a168.33,168.33,0,0,1-47.46-15.79c-35.83,34-89.86,51.25-144.92,41.51-37.2-6.57-68.71-24.38-91-48.69h0a171.09,171.09,0,0,1-80.8,19.63,175.5,175.5,0,0,1-29.75-2.69c-85.06-15-140.36-88.82-123.52-164.78,9.21-41.53,38.07-75.12,76.25-94.57a168,168,0,0,1,37.9-13.84c22.6-68.87,100.77-112.16,181.11-97.95a171.18,171.18,0,0,1,35,10.06c35.78-31.51,87.83-47.14,140.83-37.77,73.6,13,124.92,70,126.5,134.32C773.21,277.05,819.11,345.28,803.57,415.39Z"/></g></g></g></g></svg>