<?xml version="1.0" encoding="UTF-8"?><svg id="Layer_2" xmlns="http://www.w3.org/2000/svg" viewBox="0 0 51.98 81.73"><defs><style>.cls-1{fill:#3b3b3b;}</style></defs><g id="Current_weather"><g id="geotag_icon"><path class="cls-1" d="M29.47,25.71c-.91-.55-1.97-.88-3.11-.88-3.32,0-6.02,2.7-6.02,6.02,0,1.14,.33,2.2,.88,3.11-.05-.03-.11-.07-.16-.1l-.02-.02c-1.36-1.08-2.23-2.75-2.23-4.61,0-3.27,2.66-5.93,5.93-5.93,1.86,0,3.52,.87,4.61,2.22,.01,.01,.01,.02,.02,.03,.03,.05,.07,.11,.1,.16Z"/><path d="M31.96,24c-1.62-2.23-4.25-3.7-7.22-3.7-4.92,0-8.93,4.01-8.93,8.93,0,2.97,1.47,5.6,3.71,7.22,1.47,1.07,3.27,1.7,5.22,1.7,4.92,0,8.93-4,8.93-8.92,0-1.95-.64-3.75-1.71-5.23Zm-7.22,11.15c-1.12,0-2.17-.31-3.06-.86-.21-.13-.42-.27-.62-.43l-.02-.02c-1.36-1.08-2.23-2.75-2.23-4.61,0-3.27,2.66-5.93,5.93-5.93,1.86,0,3.52,.87,4.61,2.22,.01,.01,.01,.02,.02,.03,.16,.19,.3,.4,.43,.61,.55,.9,.87,1.95,.87,3.07,0,3.27-2.66,5.92-5.93,5.92Z"/><path d="M46.03,11.9C41.88,4.53,34.25,0,24.74,0,10.64,0,0,11.7,0,27.22c0,10.54,5.84,20.76,12.6,32.6,3.4,5.96,6.92,12.13,10.26,19.18,.36,.75,1.09,1.22,1.91,1.23h.02c.8,0,1.52-.45,1.88-1.18,.07-.14,.15-.28,.22-.43,3.19-6.4,6.4-12.21,9.24-17.34,7.45-13.47,13.34-24.12,13.34-35.46,0-5.28-1.22-10-3.44-13.92Zm-12.53,47.93c-2.56,4.62-5.41,9.8-8.3,15.47-.13,.27-.27,.53-.4,.8-3.18-6.52-6.57-12.47-9.6-17.77C8.39,46.39,3,36.96,3,27.22,3,13.41,12.35,3,24.74,3c3.61,0,6.89,.77,9.77,2.14,7.34,3.5,11.96,11.03,11.96,20.68,0,10.57-5.72,20.91-12.97,34.01Z"/><path class="cls-1" d="M46.03,11.9c2.21,3.92,3.44,8.65,3.44,13.93,0,11.34-5.89,21.98-13.35,35.46-2.84,5.13-6.05,10.94-9.24,17.34,.45,.9,.89,1.81,1.33,2.74,.22,.47,.88,.49,1.11,.03,11.51-23.22,22.65-37.25,22.65-52.56,0-6.8-2.17-12.66-5.94-16.93Z"/></g></g></svg>