<svg xmlns="http://www.w3.org/2000/svg" viewBox="0 0 51.97 81.73"><defs><style>.cls-1{fill:#3b3b3b;}.cls-2{fill:#FFFDFA;stroke:#000;stroke-miterlimit:10;stroke-width:3px;}</style></defs><g id="Layer_2" data-name="Layer 2"><g id="Current_weather" data-name="Current weather"><g id="geotagIcon"><path id="Raindrop" class="cls-1" d="M5.5,30.22C5.5,16,14.94,4.5,28.74,4.5S52,14.62,52,28.82c0,15.31-11.13,29.35-22.64,52.57a.62.62,0,0,1-1.12,0C18,59.83,5.5,45.35,5.5,30.22Z"/></g><g id="geotagIcon-2" data-name="geotagIcon"><path id="Raindrop-2" data-name="Raindrop" class="cls-2" d="M1.5,27.22C1.5,13,10.94,1.5,24.74,1.5S48,11.62,48,25.82c0,15.31-11.13,29.35-22.64,52.57a.62.62,0,0,1-1.12,0C14,56.83,1.5,42.35,1.5,27.22Z"/><circle class="cls-2" cx="24.74" cy="29.23" r="7.43"/></g></g></g></svg>