<svg xmlns="http://www.w3.org/2000/svg" viewBox="0 0 722.97 559.78"><defs><style>.cls-1{fill:none;stroke:#000;stroke-linecap:round;stroke-linejoin:round;stroke-width:15px;}</style></defs><g id="Layer_2" data-name="Layer 2"><g id="Weather_Icons" data-name="Weather Icons"><g id="Fog_Smog_Haze" data-name="Fog / Smog / Haze"><path class="cls-1" d="M684.06,551.78c-52.31,0-61.25-48.32-105-48.32s-58.42,48.82-112.17,48.82-64.48-48.82-108.25-48.82-52.7,48.32-105,48.32-48.73-48.32-98.46-48.32-45.63,48.32-101.36,48.32"/><path class="cls-1" d="M684.06,464.41c-52.31,0-61.25-48.31-105-48.31s-58.42,48.81-112.17,48.81S402.4,416.1,358.63,416.1s-52.7,48.31-105,48.31-48.73-48.31-98.46-48.31-45.63,48.31-101.36,48.31"/><path class="cls-1" d="M49.06,409.52a157.05,157.05,0,0,1,75.61-258.29A157.12,157.12,0,0,1,340.73,52.82,157,157,0,0,1,608.06,160.93,157,157,0,0,1,712.45,340.38c-5.16,26.08-12.51,45.45-28.21,64.72"/></g></g></g></svg>