<svg xmlns="http://www.w3.org/2000/svg" viewBox="0 0 814.09 628"><defs><style>.cls-1,.cls-2{fill:none;stroke:#dbd9d5;stroke-width:15px;}.cls-1{stroke-miterlimit:10;}.cls-2{stroke-linecap:round;stroke-linejoin:round;}</style></defs><g id="Layer_2" data-name="Layer 2"><g id="Weather_Icons" data-name="Weather Icons"><g id="Partly_Cloudy_Night" data-name="Partly Cloudy Night"><g id="Partly_Cloudy_moon" data-name="Partly Cloudy moon"><path class="cls-1" d="M803.57,415.39c-16.84,76-99.44,125.34-184.5,110.3a168.33,168.33,0,0,1-47.46-15.79c-35.83,34-89.86,51.25-144.92,41.51-37.2-6.57-68.71-24.38-91-48.69h0A171,171,0,0,1,256,522.35,307.33,307.33,0,0,1,178.51,260a168.12,168.12,0,0,1,37.28-13.53c22.6-68.87,100.77-112.16,181.11-97.95a171.18,171.18,0,0,1,35,10.06c35.78-31.51,87.83-47.14,140.83-37.77,73.6,13,124.92,70,126.5,134.32C773.21,277.05,819.11,345.28,803.57,415.39Z"/><g id="Moon"><path class="cls-2" d="M177.89,260.31A305.72,305.72,0,0,1,265.29,95c.84-.83,1.68-1.65,2.54-2.47a306,306,0,0,1,129-73.68l-1-.27A306.05,306.05,0,0,0,314,7.5C144.72,7.5,7.5,144.73,7.5,314S144.72,620.5,314,620.5a306.41,306.41,0,0,0,82.85-11.34,306.33,306.33,0,0,1-141.94-86.81"/><path class="cls-2" d="M396.7,18.32l-.85.25a306.26,306.26,0,0,0-128,73.95c-.86.82-1.7,1.64-2.54,2.47A306.92,306.92,0,0,0,387.93,606"/></g></g></g></g></g></svg>