<svg xmlns="http://www.w3.org/2000/svg" viewBox="0 0 913.72 750.65"><defs><style>.cls-1,.cls-2,.cls-3{fill:none;stroke:#000;stroke-width:15px;}.cls-1,.cls-3{stroke-linejoin:round;}.cls-2{stroke-miterlimit:10;}.cls-3{stroke-linecap:round;}</style></defs><g id="Layer_2" data-name="Layer 2"><g id="Weather_Icons" data-name="Weather Icons"><g id="Sun_w_partial_cloud" data-name="Sun w/ partial cloud"><g id="Cloud"><g id="Cloud-2" data-name="Cloud"><path class="cls-1" d="M816.75,183.3A130.81,130.81,0,0,0,594.07,93.24a130.88,130.88,0,0,0-178.52,77.33A212.37,212.37,0,0,1,576.73,456.38a130.89,130.89,0,0,0,133.75-35.45A130.79,130.79,0,1,0,816.75,183.3Z"/></g></g><g id="Sun"><path class="cls-2" d="M591.05,379.54a211.84,211.84,0,0,1-14.32,76.84C546,535.5,469.31,591.57,379.53,591.57A211.72,211.72,0,0,1,168,379.54c0-117.11,94.71-212,211.52-212a211.79,211.79,0,0,1,211.52,212Z"/><line class="cls-3" x1="369.53" y1="122.73" x2="369.53" y2="7.5"/><line class="cls-3" x1="379.53" y1="743.15" x2="379.53" y2="627.93"/><line class="cls-3" x1="561.12" y1="197.94" x2="642.6" y2="116.47"/><line class="cls-3" x1="116.47" y1="642.6" x2="197.94" y2="561.12"/><line class="cls-3" x1="659.99" y1="642.6" x2="578.51" y2="561.12"/><line class="cls-3" x1="7.5" y1="379.53" x2="122.73" y2="379.53"/><line class="cls-3" x1="116.47" y1="116.47" x2="197.94" y2="197.94"/><line class="cls-3" x1="635.26" y1="379.53" x2="750.49" y2="379.53"/></g></g></g></g></svg>