<svg xmlns="http://www.w3.org/2000/svg" viewBox="0 0 918.06 689.59"><defs><style>.cls-1,.cls-2,.cls-3{fill:none;stroke:#000;stroke-width:15px;}.cls-1{stroke-miterlimit:10;}.cls-2{stroke-linecap:round;}.cls-2,.cls-3{stroke-linejoin:round;}</style></defs><g id="Layer_2" data-name="Layer 2"><g id="Weather_Icons" data-name="Weather Icons"><g id="Cloud_w_partial_sun" data-name="Cloud w/ partial sun"><g id="Partly_sunny" data-name="Partly sunny"><g id="Sun"><path class="cls-1" d="M462.51,225.1A157.1,157.1,0,0,0,319.77,337.6,157,157,0,0,0,207.45,450.85,173.86,173.86,0,1,1,462.51,225.1Z"/><line class="cls-2" x1="311.79" y1="101.74" x2="311.79" y2="7.5"/><line class="cls-2" x1="460.31" y1="163.26" x2="526.95" y2="96.62"/><line class="cls-2" x1="96.62" y1="526.95" x2="163.26" y2="460.31"/><line class="cls-2" x1="7.5" y1="311.79" x2="101.74" y2="311.79"/><line class="cls-2" x1="96.62" y1="96.62" x2="163.26" y2="163.26"/></g><path id="Cloud" class="cls-3" d="M907.54,526.75a157.12,157.12,0,0,1-232,105.83,157,157,0,0,1-235.88-8.05A157,157,0,0,1,205.61,459c.54-2.75,1.16-5.47,1.84-8.15A157,157,0,0,1,319.77,337.6a157.11,157.11,0,0,1,216.05-98.41A157,157,0,0,1,803.13,347.28,157,157,0,0,1,907.54,526.75Z"/></g></g></g></g></svg>