<svg xmlns="http://www.w3.org/2000/svg" viewBox="0 0 722.97 451"><defs><style>.cls-1{fill:none;stroke:#dbd9d5;stroke-miterlimit:10;stroke-width:15px;}</style></defs><g id="Layer_2" data-name="Layer 2"><g id="Weather_Icons" data-name="Weather Icons"><g id="Cloudy_Night" data-name="Cloudy Night"><path id="Cloud" class="cls-1" d="M712.45,304.78c-16.84,76-99.44,125.34-184.5,110.3a168.33,168.33,0,0,1-47.46-15.79c-35.83,34-89.86,51.25-144.92,41.51-37.2-6.57-68.71-24.38-91-48.69h0a171.09,171.09,0,0,1-80.8,19.63A175.5,175.5,0,0,1,134,409.05C49,394-6.32,320.23,10.52,244.27c9.21-41.53,38.07-75.12,76.25-94.57a168,168,0,0,1,37.9-13.84C147.27,67,225.44,23.7,305.78,37.91a171.18,171.18,0,0,1,35,10.06C376.51,16.46,428.56.83,481.56,10.2c73.6,13,124.92,70,126.5,134.32C682.09,166.44,728,234.67,712.45,304.78Z"/></g></g></g></svg>