<svg xmlns="http://www.w3.org/2000/svg" viewBox="0 0 722.97 671.8"><defs><style>.cls-1,.cls-2{fill:none;stroke:#dbd9d5;}.cls-1{stroke-miterlimit:10;stroke-width:11px;}.cls-2{stroke-linejoin:round;stroke-width:15px;}</style></defs><g id="Layer_2" data-name="Layer 2"><g id="Weather_Icons" data-name="Weather Icons"><g id="Night_Hail" data-name="Night Hail"><g id="Hail_cloud" data-name="Hail cloud"><g id="Hail"><circle id="Hail-2" data-name="Hail" class="cls-1" cx="121.93" cy="538.16" r="9.14"/><circle id="Hail-3" data-name="Hail" class="cls-1" cx="223.93" cy="657.16" r="9.14"/><circle id="Hail-4" data-name="Hail" class="cls-1" cx="368.93" cy="583.66" r="9.14"/><circle id="Hail-5" data-name="Hail" class="cls-1" cx="502.43" cy="657.16" r="9.14"/><circle id="Hail-6" data-name="Hail" class="cls-1" cx="602.93" cy="538.66" r="9.14"/></g><path id="Cloud" class="cls-2" d="M712.45,340.38a157.12,157.12,0,0,1-232,105.83,157,157,0,0,1-235.88-8A157,157,0,0,1,10.52,272.63c.54-2.75,1.16-5.47,1.84-8.15A157,157,0,0,1,124.68,151.23,157.11,157.11,0,0,1,340.73,52.82,157,157,0,0,1,608,160.91,157,157,0,0,1,712.45,340.38Z"/></g></g></g></g></svg>