<svg xmlns="http://www.w3.org/2000/svg" viewBox="0 0 722.97 699.44"><defs><style>.cls-1,.cls-2{fill:none;stroke:#dbd9d5;stroke-linejoin:round;}.cls-1{stroke-linecap:round;stroke-width:10px;}.cls-2{stroke-width:15px;}</style></defs><g id="Layer_2" data-name="Layer 2"><g id="Weather_Icons" data-name="Weather Icons"><g id="Night_Snow" data-name="Night Snow"><g id="Snowcloud"><g id="Snow"><g id="Snowflake"><line class="cls-1" x1="253.75" y1="639.3" x2="215.26" y2="694.44"/><line class="cls-1" x1="215.26" y1="639.3" x2="253.49" y2="694.44"/><line class="cls-1" x1="201.38" y1="667" x2="267.38" y2="666.91"/></g><g id="Snowflake-2" data-name="Snowflake"><line class="cls-1" x1="394.53" y1="566.25" x2="356.05" y2="621.4"/><line class="cls-1" x1="356.05" y1="566.25" x2="394.28" y2="621.4"/><line class="cls-1" x1="342.17" y1="593.96" x2="408.16" y2="593.86"/></g><g id="Snowflake-3" data-name="Snowflake"><line class="cls-1" x1="523.69" y1="639.3" x2="485.21" y2="694.44"/><line class="cls-1" x1="485.21" y1="639.3" x2="523.44" y2="694.44"/><line class="cls-1" x1="471.32" y1="667" x2="537.32" y2="666.91"/></g><g id="Snowflake-4" data-name="Snowflake"><line class="cls-1" x1="154.21" y1="520.1" x2="115.73" y2="575.25"/><line class="cls-1" x1="115.73" y1="520.1" x2="153.96" y2="575.25"/><line class="cls-1" x1="101.85" y1="547.81" x2="167.84" y2="547.72"/></g><g id="Snowflake-5" data-name="Snowflake"><line class="cls-1" x1="621.79" y1="520.1" x2="583.31" y2="575.25"/><line class="cls-1" x1="583.31" y1="520.1" x2="621.54" y2="575.25"/><line class="cls-1" x1="569.42" y1="547.81" x2="635.42" y2="547.72"/></g></g><path id="Cloud" class="cls-2" d="M712.45,340.38a157.12,157.12,0,0,1-232,105.83,157,157,0,0,1-235.88-8A157,157,0,0,1,10.52,272.63c.54-2.75,1.16-5.47,1.84-8.15A157,157,0,0,1,124.68,151.23,157.11,157.11,0,0,1,340.73,52.82,157,157,0,0,1,608,160.91,157,157,0,0,1,712.45,340.38Z"/></g></g></g></g></svg>