<svg xmlns="http://www.w3.org/2000/svg" viewBox="0 0 918.06 910.99"><defs><style>.cls-1,.cls-2,.cls-3{fill:none;stroke:#000;stroke-width:15px;}.cls-1{stroke-miterlimit:10;}.cls-2{stroke-linecap:round;}.cls-2,.cls-3{stroke-linejoin:round;}</style></defs><g id="Layer_2" data-name="Layer 2"><g id="Weather_Icons" data-name="Weather Icons"><g id="Cloud_w_partial_sun" data-name="Cloud w/ partial sun"><g id="Sun"><path class="cls-1" d="M462.51,225.1A157.1,157.1,0,0,0,319.77,337.6,157,157,0,0,0,207.45,450.85,173.86,173.86,0,1,1,462.51,225.1Z"/><line class="cls-2" x1="311.79" y1="101.74" x2="311.79" y2="7.5"/><line class="cls-2" x1="460.31" y1="163.26" x2="526.95" y2="96.62"/><line class="cls-2" x1="96.62" y1="526.95" x2="163.26" y2="460.31"/><line class="cls-2" x1="7.5" y1="311.79" x2="101.74" y2="311.79"/><line class="cls-2" x1="96.62" y1="96.62" x2="163.26" y2="163.26"/></g><g id="Raincloud"><g id="Cloud"><path class="cls-3" d="M803.15,347.29a157,157,0,0,0-267.32-108.1A157.14,157.14,0,0,0,319.76,337.6,157,157,0,1,0,439.69,624.54h0a157,157,0,0,0,235.87,8A157,157,0,1,0,803.15,347.29Z"/></g><g id="Rain"><line class="cls-2" x1="505.98" y1="717.89" x2="433.13" y2="854.29"/><line class="cls-2" x1="694.32" y1="685.59" x2="621.47" y2="821.99"/><line class="cls-2" x1="351.64" y1="681.89" x2="278.79" y2="818.29"/><line class="cls-2" x1="570.48" y1="767.09" x2="497.63" y2="903.49"/><line class="cls-2" x1="737.74" y1="762.09" x2="664.89" y2="898.49"/><line class="cls-2" x1="399.64" y1="750.09" x2="326.79" y2="886.49"/></g></g></g></g></g></svg>