<svg xmlns="http://www.w3.org/2000/svg" viewBox="0 0 722.97 724.61"><defs><style>.cls-1,.cls-2{fill:none;stroke:#000;stroke-linejoin:round;stroke-width:15px;}.cls-2{stroke-linecap:round;}</style></defs><g id="Layer_2" data-name="Layer 2"><g id="Weather_Icons" data-name="Weather Icons"><g id="Rain"><g id="Rainy"><g id="Raincloud"><g id="Cloud"><path class="cls-1" d="M608.06,160.92A157,157,0,0,0,340.74,52.82a157.14,157.14,0,0,0-216.07,98.41A157,157,0,1,0,244.6,438.17h0a157,157,0,0,0,235.87,8A157,157,0,1,0,608.06,160.92Z"/></g><g id="Rain-2" data-name="Rain"><line class="cls-2" x1="310.89" y1="531.51" x2="238.04" y2="667.91"/><line class="cls-2" x1="499.22" y1="499.21" x2="426.37" y2="635.61"/><line class="cls-2" x1="156.55" y1="495.51" x2="83.7" y2="631.91"/><line class="cls-2" x1="375.39" y1="580.71" x2="302.54" y2="717.11"/><line class="cls-2" x1="542.65" y1="575.71" x2="469.8" y2="712.11"/><line class="cls-2" x1="204.55" y1="563.71" x2="131.7" y2="700.11"/></g></g></g></g></g></g></svg>