<svg xmlns="http://www.w3.org/2000/svg" viewBox="0 0 722.97 742.38"><defs><style>.cls-1,.cls-2,.cls-3,.cls-4{fill:none;stroke:#000;}.cls-1{stroke-miterlimit:10;stroke-width:11px;}.cls-2,.cls-3{stroke-linecap:round;}.cls-2,.cls-3,.cls-4{stroke-linejoin:round;}.cls-2{stroke-width:10px;}.cls-3,.cls-4{stroke-width:15px;}</style></defs><g id="Layer_2" data-name="Layer 2"><g id="Weather_Icons" data-name="Weather Icons"><g id="Sleet"><g id="Sleet_cloud" data-name="Sleet cloud"><circle id="Hail" class="cls-1" cx="157.42" cy="538.43" r="9.14"/><circle id="Hail-2" data-name="Hail" class="cls-1" cx="268.78" cy="684" r="9.14"/><circle id="Hail-3" data-name="Hail" class="cls-1" cx="422.22" cy="567.17" r="9.14"/><circle id="Hail-4" data-name="Hail" class="cls-1" cx="569.93" cy="525.54" r="9.14"/><g id="Snowflake"><line class="cls-2" x1="310.41" y1="516.4" x2="285.22" y2="562.17"/><line class="cls-2" x1="282.47" y1="518.14" x2="312.98" y2="560.44"/><line class="cls-2" x1="273.78" y1="540.89" x2="321.68" y2="537.82"/></g><g id="Snowflake-2" data-name="Snowflake"><line class="cls-2" x1="402.78" y1="691.64" x2="377.54" y2="737.38"/><line class="cls-2" x1="374.84" y1="693.35" x2="405.29" y2="735.68"/><line class="cls-2" x1="366.12" y1="716.09" x2="414.02" y2="713.08"/></g><line class="cls-3" x1="372.48" y1="580.86" x2="299.63" y2="717.26"/><line class="cls-3" x1="491.61" y1="525.54" x2="418.76" y2="661.94"/><line class="cls-3" x1="233.17" y1="512.66" x2="160.32" y2="649.06"/><line class="cls-3" x1="541.46" y1="580.86" x2="468.61" y2="717.26"/><line class="cls-3" x1="269.59" y1="592.93" x2="196.74" y2="729.33"/><path id="Cloud" class="cls-4" d="M712.45,340.38a157.12,157.12,0,0,1-232,105.83,157,157,0,0,1-235.88-8A157,157,0,0,1,10.52,272.63c.54-2.75,1.16-5.47,1.84-8.15A157,157,0,0,1,124.68,151.23,157.11,157.11,0,0,1,340.73,52.82,157,157,0,0,1,608,160.91,157,157,0,0,1,712.45,340.38Z"/></g></g></g></g></svg>