<svg xmlns="http://www.w3.org/2000/svg" viewBox="0 0 722.07 751.81"><defs><style>.cls-1,.cls-2,.cls-3{fill:none;stroke-linecap:round;stroke-width:15px;}.cls-1,.cls-2{stroke:#000;}.cls-1,.cls-3{stroke-linejoin:round;}.cls-2{stroke-miterlimit:10;}.cls-3{stroke:#ffe8ad;}</style></defs><g id="Layer_2" data-name="Layer 2"><g id="Weather_Icons" data-name="Weather Icons"><g id="Lightning_storm" data-name="Lightning storm"><g id="Thunderstorm"><g id="Thundercloud"><path id="Lightning_cloud" data-name="Lightning cloud" class="cls-1" d="M344.79,482.13c49.41,11.45,101.95,1.5,134.8-36.59,90.23,53.52,213.4-2,232-105.83A157,157,0,0,0,607.16,160.26c3-132.67-177.45-205.12-267.33-108.11-85.37-40.42-191.18,8.45-216.06,98.41C-101.44,220.51,34.46,528.21,243.7,417"/><line id="Rain" class="cls-2" x1="380.21" y1="581.23" x2="307.36" y2="717.63"/><line id="Rain-2" data-name="Rain" class="cls-2" x1="165.36" y1="494.73" x2="92.52" y2="631.13"/><line id="Rain-3" data-name="Rain" class="cls-2" x1="509.94" y1="513.03" x2="437.09" y2="649.43"/><line id="Rain-4" data-name="Rain" class="cls-2" x1="553.37" y1="607.91" x2="480.52" y2="744.31"/><line id="Rain-5" data-name="Rain" class="cls-2" x1="201.79" y1="607.91" x2="128.94" y2="744.31"/><polyline id="Lightening" class="cls-3" points="297.6 435.62 233.37 554.03 315.57 537.33 257.69 647.04"/></g></g></g></g></g></svg>