<svg xmlns="http://www.w3.org/2000/svg" viewBox="0 0 171.17 177.09"><defs><style>.cls-1{fill:none;stroke:#2c2c2c;stroke-linecap:round;stroke-linejoin:round;stroke-width:5px;}</style></defs><g id="Layer_2" data-name="Layer 2"><g id="_10_Day_Forecast" data-name="10 Day Forecast"><g id="Umbrella"><path class="cls-1" d="M146.17,86.41c-13.08-7.1-14.89,15.52-27.8,17-11.25,1.26-16.47-13-32.7-13.12a25.54,25.54,0,0,0-2.82.15c-.46,0-.9.11-1.33.18q-.42.06-.81.15a24.79,24.79,0,0,0-6.26,2.11c-.35.16-.69.34-1,.52-6,3.18-10.31,7.9-15.56,9.52a11.24,11.24,0,0,1-1.62.39,12,12,0,0,1-3.45.1c-12.92-1.45-14.73-24.07-27.8-17-13.29,7.22-28.16,11.26-20.33-5q3-6.33,6.21-11.94c.64-1.13,1.29-2.25,1.94-3.34s1.4-2.32,2.11-3.44,1.41-2.2,2.12-3.26c.39-.59.78-1.17,1.18-1.74l1-1.44c.36-.51.73-1,1.1-1.52q1.1-1.5,2.22-2.94Q24.23,49.6,26,47.6c.65-.75,1.3-1.49,2-2.21.24-.27.48-.53.73-.79q1-1.05,1.95-2c.78-.8,1.57-1.57,2.37-2.32q3-2.79,6-5.2l.06,0a77.27,77.27,0,0,1,7.62-5.25c.84-.51,1.68-1,2.53-1.47S51,27.3,52,26.84l1.35-.65C54.65,25.55,56,25,57.4,24.4q1.32-.54,2.67-1l1.68-.58L63,22.4a83.68,83.68,0,0,1,13.28-3c1.53-.22,3.07-.4,4.64-.54s3.1-.25,4.68-.33h.06c34,1.65,59.74,18.82,80.83,62.79C174.33,97.67,159.46,93.63,146.17,86.41Z"/><path class="cls-1" d="M85.67,90.61v71.71a12.26,12.26,0,1,1-24.52,0"/><polyline class="cls-1" points="85.67 18.57 85.67 18.56 85.67 2.5"/></g></g></g></svg>